<?xml version="1.0" encoding="iso-8859-1"?>
<!-- Generator: Adobe Illustrator 19.0.0, SVG Export Plug-In . SVG Version: 6.00 Build 0)  -->
<svg version="1.1" id="Capa_1" xmlns="http://www.w3.org/2000/svg" xmlns:xlink="http://www.w3.org/1999/xlink" x="0px" y="0px"
	 viewBox="0 0 512 512" style="enable-background:new 0 0 512 512;" xml:space="preserve">
<g>
	<g>
		<path d="M451.574,127.34c0-2.237-0.979-4.246-2.533-5.62c0,0-119.515-119.515-119.517-119.517C328.132,0.812,326.183,0,324.215,0
			H113.542C84.253,0,60.426,23.828,60.426,53.116v405.768c0,29.289,23.828,53.116,53.116,53.116h284.896
			c29.289,0,53.116-23.828,53.116-53.116l-0.001-331.128C451.561,127.618,451.574,127.48,451.574,127.34z M331.715,25.607
			l94.233,94.233h-71.82c-12.359,0-22.413-10.055-22.413-22.413V25.607z M436.555,458.884L436.555,458.884
			c-0.001,21.017-17.1,38.116-38.117,38.116H113.542c-21.018,0-38.116-17.099-38.116-38.116V53.116
			C75.426,32.099,92.524,15,113.542,15h203.172c0,0,0,82.399,0,82.426c0,17.343,12.906,33.169,29.883,36.652
			c2.433,0.499,4.952,0.761,7.531,0.761h82.427V458.884z"/>
	</g>
</g>
<g>
	<g>
		<path d="M239.943,130.022c-4.142,0-7.5,3.358-7.5,7.5v6.248c0,4.142,3.358,7.5,7.5,7.5c4.142,0,7.5-3.358,7.5-7.5v-6.248
			C247.443,133.38,244.085,130.022,239.943,130.022z"/>
	</g>
</g>
<g>
	<g>
		<path d="M170.897,130.022c-4.142,0-7.5,3.358-7.5,7.5v6.248c0,4.142,3.358,7.5,7.5,7.5c4.142,0,7.5-3.358,7.5-7.5v-6.248
			C178.397,133.38,175.039,130.022,170.897,130.022z"/>
	</g>
</g>
<g>
	<g>
		<path d="M220.825,138.109c-3.118-2.726-7.857-2.409-10.583,0.71c-1.149,1.314-2.907,2.068-4.823,2.068s-3.673-0.753-4.822-2.067
			c-2.727-3.12-7.465-3.437-10.583-0.711c-3.119,2.726-3.438,7.464-0.711,10.583c3.997,4.573,9.871,7.196,16.116,7.196
			c6.244,0,12.118-2.623,16.116-7.196C224.261,145.574,223.944,140.835,220.825,138.109z"/>
	</g>
</g>
<g>
	<g>
		<path d="M303.45,123.059c-4.725-24.813-19.625-47.235-41.155-61.796c-3.431-2.321-8.094-1.42-10.414,2.011
			c-2.321,3.431-1.42,8.094,2.011,10.414c14.638,9.9,25.651,24.055,31.485,40.072c-0.073-0.006-2.207-0.102-2.246-0.102
			c-3.344-5.598-7.79-10.616-12.965-14.588c-13.21-10.185-30.834-13.724-46.879-9.014c-0.061,0.018-0.121,0.037-0.181,0.055
			c-4.722,1.39-9.202,3.498-13.478,5.915c-0.03,0.017-0.063,0.028-0.094,0.045c-2.553,1.4-5.787,1.389-8.322-0.045
			c-4.268-2.414-8.789-4.536-13.501-5.922c-0.05-0.015-0.099-0.031-0.149-0.045c-16.071-4.704-33.721-1.251-46.912,9.031
			c-5.159,4.02-9.584,8.95-12.94,14.568c-0.039,0-2.187,0.096-2.263,0.103c2.171-5.991,5.07-11.717,8.616-17.064
			c0.019-0.027,0.042-0.051,0.061-0.078c5.633-8.412,12.779-15.794,21.02-21.676c14.583-10.408,32.37-16.023,50.276-16.023
			c7.995,0,15.941,1.092,23.619,3.247c3.989,1.118,8.128-1.207,9.248-5.195c1.119-3.988-1.207-8.128-5.195-9.248
			c-8.997-2.524-18.307-3.805-27.672-3.805c-12.302,0-24.399,2.235-35.717,6.459C157.767,36.107,146.19,32.94,138.277,32.94
			c-17.389,0-30.151,14.696-32.444,28.904c-1.804,11.18-8.985,12.068-10.463,12.13c-2.377,0.033-4.6,1.19-5.989,3.124
			c-1.409,1.961-1.787,4.481-1.016,6.77c0.248,0.737,6.16,17.591,25.549,18.477c-2.948,6.607-5.134,13.54-6.494,20.679
			c-4.077,4.724-6.551,10.868-6.551,17.584c0,13.91,10.593,25.392,24.135,26.806c11.542,32.149,43.219,55.304,80.416,55.304
			c37.197,0,68.874-23.154,80.418-55.301c13.542-1.414,24.135-12.895,24.135-26.806C309.973,133.911,307.51,127.779,303.45,123.059z
			 M120.959,132.316c-0.915,5.747-0.776,11.668-0.11,17.434c0.023,0.206,0.048,0.412,0.073,0.618
			c-3.057-2.167-5.055-5.733-5.055-9.757c0-3.819,1.932-7.509,5.038-9.723c0.107-0.077,0.219-0.145,0.328-0.218
			C121.129,131.216,121.047,131.767,120.959,132.316z M123.088,86.172c-2.744,0.809-5.287,1.219-7.583,1.219
			c-3.337,0-5.882-0.915-7.796-2.143c5.717-3.535,11.153-9.99,12.932-21.012c1.27-7.869,8.659-16.294,17.636-16.294
			c5.608,0,11.464,3.093,17.207,9.027c-0.047,0.026-0.092,0.054-0.139,0.081c-4.237,2.396-8.303,5.104-12.146,8.09
			C135.517,71.108,128.691,78.218,123.088,86.172z M273.228,157.633c-7.891,28.786-35.297,50.085-67.808,50.085
			c-32.516,0-59.925-21.305-67.812-50.097c-1.708-6.254-2.594-12.797-2.226-19.283c0.553-9.73,5.035-19.062,12.278-25.59
			c10.343-9.322,25.43-12.499,38.957-7.181c6.234,2.451,11.841,6.568,18.802,6.568c7.124,0,12.461-4.063,18.809-6.571
			c13.062-5.161,28.494-2.201,38.911,7.148c7.553,6.838,12.327,16.679,12.38,27.608
			C275.547,146.158,274.771,152.003,273.228,157.633z M289.918,150.369c0.034-0.276,0.059-0.553,0.09-0.829
			c0.653-5.772,0.761-11.654-0.157-17.404c-0.078-0.489-0.151-0.979-0.243-1.465c0.113,0.076,0.228,0.145,0.338,0.225
			c0.413,0.298,0.81,0.621,1.184,0.968c2.355,2.185,3.844,5.291,3.844,8.748C294.973,144.635,292.975,148.201,289.918,150.369z"/>
	</g>
</g>
<g>
	<g>
		<path d="M379.957,248.5H132.023c-4.142,0-7.5,3.358-7.5,7.5c0,4.142,3.358,7.5,7.5,7.5h247.934c4.142,0,7.5-3.358,7.5-7.5
			C387.457,251.858,384.099,248.5,379.957,248.5z"/>
	</g>
</g>
<g>
	<g>
		<path d="M379.957,294.944H132.023c-4.142,0-7.5,3.358-7.5,7.5c0,4.142,3.358,7.5,7.5,7.5h247.934c4.142,0,7.5-3.358,7.5-7.5
			C387.457,298.302,384.099,294.944,379.957,294.944z"/>
	</g>
</g>
<g>
	<g>
		<path d="M379.957,341.388H132.023c-4.142,0-7.5,3.358-7.5,7.5c0,4.142,3.358,7.5,7.5,7.5h247.934c4.142,0,7.5-3.358,7.5-7.5
			C387.457,344.746,384.099,341.388,379.957,341.388z"/>
	</g>
</g>
<g>
	<g>
		<path d="M379.957,387.832H132.023c-4.142,0-7.5,3.358-7.5,7.5c0,4.142,3.358,7.5,7.5,7.5h247.934c4.142,0,7.5-3.358,7.5-7.5
			C387.457,391.19,384.099,387.832,379.957,387.832z"/>
	</g>
</g>
<g>
	<g>
		<path d="M379.957,446.498h-82.354c-4.142,0-7.5,3.358-7.5,7.5c0,4.142,3.358,7.5,7.5,7.5h82.354c4.142,0,7.5-3.358,7.5-7.5
			C387.457,449.856,384.099,446.498,379.957,446.498z"/>
	</g>
</g>
<g>
</g>
<g>
</g>
<g>
</g>
<g>
</g>
<g>
</g>
<g>
</g>
<g>
</g>
<g>
</g>
<g>
</g>
<g>
</g>
<g>
</g>
<g>
</g>
<g>
</g>
<g>
</g>
<g>
</g>
</svg>
