<?xml version="1.0" encoding="iso-8859-1"?>
<!-- Generator: Adobe Illustrator 19.0.0, SVG Export Plug-In . SVG Version: 6.00 Build 0)  -->
<svg xmlns="http://www.w3.org/2000/svg" xmlns:xlink="http://www.w3.org/1999/xlink" version="1.1" id="Layer_1" x="0px" y="0px" viewBox="0 0 512 512" style="enable-background:new 0 0 512 512;" xml:space="preserve" width="512" height="512">
<g>
	<g>
		<g>
			<g>
				<g>
					<g>
						<g>
							<g>
								<g>
									<g>
										<path style="fill:#6E78FF;" d="M432.178,297.16v173.295c0,17.422-14.124,31.545-31.546,31.545H111.367            c-17.423,0-31.546-14.123-31.546-31.545V97.2c0-17.422,14.124-31.545,31.546-31.545h289.265            c17.423,0,31.546,14.123,31.546,31.545v96.237"/>
									</g>
								</g>
							</g>
						</g>
					</g>
				</g>
			</g>
		</g>
		<g>
			<g>
				<g>
					<g>
						<g>
							<g>
								<g>
									<g>
										<rect x="119.854" y="105.686" style="fill:#FFFFFF;" width="272.292" height="356.284"/>
									</g>
								</g>
							</g>
						</g>
					</g>
				</g>
			</g>
		</g>
		<g>
			<g>
				<g>
					<g>
						<g>
							<g>
								<g>
									<g>
										<path style="fill:#FFBC6A;" d="M299.359,65.655c0.882-3.503,1.351-7.17,1.351-10.947c0-24.691-20.017-44.708-44.71-44.708            s-44.71,20.017-44.71,44.708c0,3.777,0.469,7.444,1.351,10.947h-40.588v40.031h167.895V65.655H299.359z"/>
									</g>
								</g>
							</g>
						</g>
					</g>
				</g>
			</g>
		</g>
		<g>
			<g>
				<g>
					<g>
						<g>
							<g>
								<g>
									<g>
										<path d="M432.179,248.3c-0.65,0-1.31-0.07-1.95-0.2c-0.64-0.13-1.27-0.319-1.88-0.569c-0.6-0.25-1.18-0.561-1.72-0.921            c-0.55-0.359-1.06-0.779-1.52-1.239c-0.46-0.46-0.88-0.971-1.25-1.521c-0.36-0.54-0.66-1.12-0.91-1.729            c-0.25-0.601-0.45-1.23-0.57-1.87c-0.13-0.641-0.2-1.3-0.2-1.95c0-0.65,0.07-1.31,0.2-1.96c0.12-0.63,0.32-1.26,0.57-1.87            c0.25-0.6,0.55-1.18,0.91-1.72c0.37-0.55,0.79-1.061,1.25-1.52c0.46-0.46,0.97-0.88,1.52-1.25            c0.54-0.359,1.12-0.67,1.72-0.92c0.61-0.25,1.24-0.439,1.88-0.569c1.29-0.261,2.61-0.261,3.9,0            c0.64,0.13,1.27,0.319,1.87,0.569c0.61,0.25,1.19,0.561,1.73,0.92c0.55,0.37,1.06,0.79,1.52,1.25            c0.46,0.46,0.88,0.971,1.24,1.52c0.36,0.54,0.67,1.12,0.92,1.72c0.25,0.61,0.44,1.24,0.57,1.87            c0.13,0.65,0.2,1.31,0.2,1.96c0,2.63-1.07,5.21-2.93,7.07c-0.46,0.46-0.97,0.88-1.52,1.239            c-0.54,0.36-1.12,0.671-1.73,0.921c-0.6,0.25-1.23,0.439-1.87,0.569C433.489,248.23,432.83,248.3,432.179,248.3z"/>
									</g>
								</g>
							</g>
						</g>
					</g>
				</g>
			</g>
		</g>
	</g>
	<g>
		<g>
			<g>
				<g>
					<g>
						<g>
							<g>
								<g>
									<g>
										<path style="fill:#FF5F6B;" d="M345.385,233.257c0,32.627-17.488,61.176-43.603,76.78            c-13.393,8.005-29.053,12.602-45.782,12.602s-32.389-4.597-45.782-12.602c-26.116-15.603-43.603-44.152-43.603-76.78            c0-49.364,40.02-89.382,89.386-89.382S345.385,183.893,345.385,233.257z"/>
									</g>
								</g>
							</g>
						</g>
					</g>
				</g>
			</g>
		</g>
		<g>
			<g>
				<g>
					<g>
						<g>
							<g>
								<g>
									<g>
										<g>
											<circle style="fill:#FFDAA0;" cx="255.999" cy="213.68" r="37.146"/>
										</g>
									</g>
								</g>
							</g>
						</g>
					</g>
				</g>
			</g>
			<g>
				<g>
					<g>
						<g>
							<g>
								<g>
									<g>
										<g>
											<g>
												<path style="fill:#C7EAFF;" d="M301.782,265.406v44.631c-13.393,8.005-29.053,12.602-45.782,12.602              s-32.389-4.597-45.782-12.602v-44.631c0-8.053,6.521-14.582,14.574-14.582h62.416              C295.261,250.824,301.782,257.352,301.782,265.406z"/>
											</g>
										</g>
									</g>
								</g>
							</g>
						</g>
					</g>
				</g>
				<g>
					<path d="M432.178,203.436c5.523,0,10-4.477,10-10V97.199c0-22.908-18.638-41.545-41.546-41.545h-89.931       c0.005-0.315,0.008-0.631,0.008-0.946C310.71,24.542,286.167,0,255.999,0s-54.71,24.542-54.71,54.708       c0,0.315,0.003,0.631,0.008,0.946h-89.931c-22.909,0-41.546,18.637-41.546,41.545v373.256       c0,22.908,18.638,41.545,41.546,41.545h289.265c22.909,0,41.546-18.637,41.546-41.545V297.16c0-5.522-4.477-10-10-10       c-5.523,0-10,4.478-10,10v173.295c0,11.88-9.665,21.545-21.546,21.545H111.367c-11.881,0-21.546-9.665-21.546-21.545V97.199       c0-11.88,9.665-21.545,21.546-21.545h50.685v20.031h-42.199c-5.523,0-10,4.478-10,10v356.283c0,5.522,4.477,10,10,10h272.292       c5.523,0,10-4.478,10-10V105.686c0-5.522-4.477-10-10-10h-42.199V75.654h50.685c11.881,0,21.546,9.665,21.546,21.545v96.237       C422.178,198.959,426.655,203.436,432.178,203.436z M382.146,451.969H129.854V115.686h252.292V451.969z M182.052,95.686V75.654       h30.588c3.082,0,5.992-1.421,7.887-3.852c1.895-2.431,2.563-5.6,1.81-8.589c-0.695-2.763-1.048-5.624-1.048-8.505       C221.29,35.57,236.86,20,255.999,20s34.71,15.57,34.71,34.708c0,2.881-0.353,5.742-1.048,8.505       c-0.752,2.989-0.085,6.158,1.81,8.589c1.895,2.432,4.805,3.852,7.887,3.852h30.588v20.031H182.052z"/>
					<path d="M255.999,133.875c-54.801,0-99.386,44.582-99.386,99.382c0,34.791,18.574,67.5,48.475,85.365       c0.006,0.003,0.012,0.007,0.017,0.01c15.339,9.163,32.937,14.006,50.894,14.006c17.964,0,35.569-4.848,50.913-14.018       c3.02-1.806,4.87-5.065,4.87-8.584v-44.632c0-11.248-7.592-20.755-17.919-23.665c5.83-7.845,9.283-17.557,9.283-28.06       c0-25.996-21.15-47.145-47.146-47.145s-47.146,21.149-47.146,47.145c0,10.503,3.453,20.214,9.283,28.06       c-10.327,2.91-17.919,12.417-17.919,23.665v24.29c-14.863-14.763-23.604-35.112-23.604-56.439       c0-43.771,35.612-79.382,79.386-79.382s79.386,35.61,79.386,79.382c0,9.519-1.665,18.823-4.948,27.656       c-1.925,5.177,0.712,10.934,5.889,12.857c5.175,1.927,10.934-0.711,12.857-5.889c4.116-11.07,6.202-22.72,6.202-34.625       C355.385,178.457,310.801,133.875,255.999,133.875z M291.782,304.135c-11.038,5.577-23.299,8.504-35.782,8.504       c-12.483,0-24.745-2.927-35.782-8.504v-38.729c0-2.526,2.052-4.581,4.574-4.581h31.053c0.051,0,0.103,0.001,0.154,0.001       s0.103-0.001,0.154-0.001h31.053c2.523,0,4.574,2.055,4.574,4.581V304.135z M255.999,186.535       c14.969,0,27.146,12.178,27.146,27.145c0,14.916-12.094,27.059-26.991,27.144h-0.311       c-14.897-0.084-26.991-12.228-26.991-27.144C228.853,198.713,241.031,186.535,255.999,186.535z"/>
				</g>
			</g>
		</g>
	</g>
	<g>
		<g>
			<g>
				<g>
					<g>
						<g>
							<g>
								<g>
									<g>
										<g>
											<path d="M288.526,375.273H169.385c-5.523,0-10-4.478-10-10c0-5.522,4.477-10,10-10h119.141c5.523,0,10,4.478,10,10             C298.526,370.796,294.049,375.273,288.526,375.273z"/>
										</g>
									</g>
								</g>
							</g>
						</g>
					</g>
				</g>
			</g>
			<g>
				<g>
					<g>
						<g>
							<g>
								<g>
									<g>
										<g>
											<path d="M255.999,414.435h-86.614c-5.523,0-10-4.478-10-10c0-5.522,4.477-10,10-10h86.614c5.523,0,10,4.478,10,10             C266,409.957,261.522,414.435,255.999,414.435z"/>
										</g>
									</g>
								</g>
							</g>
						</g>
					</g>
				</g>
			</g>
		</g>
	</g>
	<g>
		<g>
			<g>
				<g>
					<g>
						<g>
							<g>
								<g>
									<path d="M330.164,414.435c-2.099,0-4.162-0.661-5.884-1.914l-10.756-7.827c-4.466-3.25-5.452-9.504-2.202-13.97           c3.249-4.467,9.503-5.451,13.969-2.202l2.225,1.619l12.053-18.583c3.006-4.634,9.199-5.953,13.832-2.947           c4.633,3.006,5.953,9.198,2.948,13.832l-17.795,27.435c-1.494,2.303-3.869,3.891-6.568,4.391           C331.38,414.38,330.77,414.435,330.164,414.435z"/>
								</g>
							</g>
						</g>
					</g>
				</g>
			</g>
		</g>
	</g>
</g>















</svg>
