<?xml version="1.0" encoding="iso-8859-1"?>
<!-- Generator: Adobe Illustrator 19.0.0, SVG Export Plug-In . SVG Version: 6.00 Build 0)  -->
<svg version="1.1" id="Capa_1" xmlns="http://www.w3.org/2000/svg" xmlns:xlink="http://www.w3.org/1999/xlink" x="0px" y="0px"
	 viewBox="0 0 512 512" style="enable-background:new 0 0 512 512;" xml:space="preserve">
<path style="fill:#E6EAEE;" d="M453.395,73.189v426.286c0,2.767-2.243,5.01-5.01,5.01H63.616c-2.767,0-5.01-2.243-5.01-5.01V12.525
	c0-2.767,2.243-5.01,5.01-5.01H389.52L453.395,73.189z"/>
<path style="fill:#CDD3D9;" d="M453.398,73.192v426.285c0,2.767-2.243,5.01-5.01,5.01h-26.933V75.226
	c0-1.305-0.509-2.558-1.418-3.493L357.58,7.513h31.943L453.398,73.192z"/>
<path style="fill:#FFD071;" d="M453.395,73.189L389.52,7.515V68.18c0,2.767,2.243,5.01,5.01,5.01L453.395,73.189L453.395,73.189z"/>
<path d="M350.688,512H63.616c-6.906,0-12.525-5.618-12.525-12.525v-373.23c0-4.151,3.365-7.515,7.515-7.515s7.515,3.364,7.515,7.515
	V496.97h284.567c4.15,0,7.515,3.364,7.515,7.515C358.202,508.636,354.838,512,350.688,512z"/>
<path d="M448.385,512h-45.094c-4.15,0-7.515-3.364-7.515-7.515s3.365-7.515,7.515-7.515h42.59V76.242L386.345,15.03H66.121v56.108
	c0,4.151-3.365,7.515-7.515,7.515s-7.515-3.364-7.515-7.515V12.525C51.092,5.619,56.71,0,63.616,0h325.903
	c2.029,0,3.972,0.821,5.387,2.275l63.876,65.675c1.365,1.403,2.128,3.283,2.128,5.24v426.286
	C460.91,506.382,455.292,512,448.385,512z"/>
<path d="M453.395,80.704h-63.876c-4.15,0-7.515-3.364-7.515-7.515V7.515c0-3.059,1.854-5.812,4.687-6.963s6.081-0.469,8.214,1.723
	l63.876,65.675c2.106,2.165,2.711,5.382,1.536,8.163C459.143,78.896,456.416,80.704,453.395,80.704z M397.034,65.675h38.569
	L397.034,26.02V65.675z"/>
<path style="fill:#FF6E5E;" d="M290.79,98.966H109.704c-2.761,0-5-2.239-5-5V52.412c0-2.761,2.239-5,5-5h181.085
	c2.761,0,5,2.239,5,5v41.554C295.79,96.728,293.551,98.966,290.79,98.966z"/>
<path style="fill:#F4584D;" d="M295.789,52.422v41.531c0,2.775-2.244,5.01-5.01,5.01h-19.198c2.765,0,5.01-2.234,5.01-5.01V52.422
	c0-2.765-2.244-5.01-5.01-5.01h19.198C293.544,47.411,295.789,49.656,295.789,52.422z"/>
<path d="M290.78,106.481H109.714c-6.906,0-12.525-5.618-12.525-12.525V52.424c0-6.906,5.618-12.525,12.525-12.525H290.78
	c6.906,0,12.525,5.618,12.525,12.525v41.534C303.305,100.862,297.686,106.481,290.78,106.481z M112.219,91.451h176.056V54.927
	H112.219V91.451z"/>
<path d="M129.624,209.406c-1.811,0-3.572-0.656-4.948-1.859l-16.031-14.027c-3.123-2.733-3.44-7.48-0.707-10.604
	c2.734-3.124,7.481-3.441,10.604-0.707l9.972,8.726l33.203-43.688c2.512-3.305,7.227-3.945,10.53-1.436
	c3.304,2.512,3.947,7.226,1.436,10.53l-38.075,50.098c-1.26,1.659-3.153,2.719-5.225,2.93
	C130.129,209.393,129.876,209.406,129.624,209.406z"/>
<path d="M398.409,159.308H209.136c-4.15,0-7.515-3.364-7.515-7.515s3.365-7.515,7.515-7.515h189.273c4.15,0,7.515,3.364,7.515,7.515
	S402.559,159.308,398.409,159.308z"/>
<path d="M332.021,184.357H209.136c-4.15,0-7.515-3.364-7.515-7.515s3.365-7.515,7.515-7.515h122.885c4.15,0,7.515,3.364,7.515,7.515
	S336.171,184.357,332.021,184.357z"/>
<path d="M360.076,209.406h-150.94c-4.15,0-7.515-3.364-7.515-7.515s3.365-7.515,7.515-7.515h150.94c4.15,0,7.515,3.364,7.515,7.515
	S364.226,209.406,360.076,209.406z"/>
<path d="M129.624,311.609c-1.811,0-3.572-0.656-4.948-1.859l-16.031-14.027c-3.123-2.733-3.44-7.48-0.707-10.604
	c2.734-3.123,7.481-3.44,10.604-0.707l9.972,8.726l33.203-43.688c2.512-3.305,7.227-3.946,10.53-1.436
	c3.304,2.512,3.947,7.226,1.436,10.53l-38.075,50.098c-1.26,1.659-3.153,2.719-5.225,2.93
	C130.129,311.596,129.876,311.609,129.624,311.609z"/>
<path d="M398.409,261.511H209.136c-4.15,0-7.515-3.364-7.515-7.515c0-4.151,3.365-7.515,7.515-7.515h189.273
	c4.15,0,7.515,3.364,7.515,7.515C405.924,258.147,402.559,261.511,398.409,261.511z"/>
<path d="M332.021,286.56H209.136c-4.15,0-7.515-3.364-7.515-7.515s3.365-7.515,7.515-7.515h122.885c4.15,0,7.515,3.364,7.515,7.515
	C339.536,283.197,336.171,286.56,332.021,286.56z"/>
<path d="M360.076,311.609h-150.94c-4.15,0-7.515-3.364-7.515-7.515s3.365-7.515,7.515-7.515h150.94c4.15,0,7.515,3.364,7.515,7.515
	C367.591,308.245,364.226,311.609,360.076,311.609z"/>
<path d="M398.409,363.715H209.136c-4.15,0-7.515-3.364-7.515-7.515s3.365-7.515,7.515-7.515h189.273c4.15,0,7.515,3.364,7.515,7.515
	C405.923,360.352,402.559,363.715,398.409,363.715z"/>
<path d="M332.021,388.764H209.136c-4.15,0-7.515-3.364-7.515-7.515s3.365-7.515,7.515-7.515h122.885c4.15,0,7.515,3.364,7.515,7.515
	S336.171,388.764,332.021,388.764z"/>
<path d="M360.076,413.813h-150.94c-4.15,0-7.515-3.364-7.515-7.515s3.365-7.515,7.515-7.515h150.94c4.15,0,7.515,3.364,7.515,7.515
	C367.591,410.449,364.226,413.813,360.076,413.813z"/>
<path style="fill:#FFD071;" d="M158.691,406.299h-40.098c-2.761,0-5-2.239-5-5v-40.098c0-2.761,2.239-5,5-5h40.098
	c2.761,0,5,2.239,5,5v40.098C163.691,404.06,161.453,406.299,158.691,406.299z"/>
<path style="fill:#F7B657;" d="M163.69,361.206v40.079c0,2.775-2.244,5.01-5.01,5.01h-21.041c2.765,0,5.01-2.234,5.01-5.01v-40.079
	c0-2.765-2.244-5.01-5.01-5.01h21.041C161.446,356.197,163.69,358.441,163.69,361.206z"/>
<path d="M158.681,413.813h-40.079c-6.906,0-12.525-5.618-12.525-12.525V361.21c0-6.906,5.618-12.525,12.525-12.525h40.079
	c6.906,0,12.525,5.618,12.525,12.525v40.079C171.206,408.195,165.588,413.813,158.681,413.813z M121.108,398.784h35.069v-35.069
	h-35.069C121.108,363.715,121.108,398.784,121.108,398.784z"/>
<g>
</g>
<g>
</g>
<g>
</g>
<g>
</g>
<g>
</g>
<g>
</g>
<g>
</g>
<g>
</g>
<g>
</g>
<g>
</g>
<g>
</g>
<g>
</g>
<g>
</g>
<g>
</g>
<g>
</g>
</svg>
